<?xml version="1.0" standalone="no"?>
<!DOCTYPE svg PUBLIC "-//W3C//DTD SVG 20010904//EN"
 "http://www.w3.org/TR/2001/REC-SVG-20010904/DTD/svg10.dtd">
<svg version="1.0" xmlns="http://www.w3.org/2000/svg"
 width="5000.000000pt" height="2471.000000pt" viewBox="0 0 5000.000000 2471.000000"
 preserveAspectRatio="xMidYMid meet">

<g transform="translate(0.000000,2471.000000) scale(0.100000,-0.100000)"
fill="#000000" stroke="none">
<path d="M36515 23119 c-981 -57 -1883 -233 -2795 -544 -1180 -402 -2312
-1038 -3270 -1837 -1108 -924 -1984 -2023 -2625 -3293 -613 -1216 -958 -2464
-1066 -3860 -17 -223 -23 -973 -10 -1216 87 -1588 511 -3066 1271 -4430 1510
-2706 4180 -4612 7220 -5153 807 -143 1587 -193 2374 -151 154 8 300 17 325
20 26 2 100 9 166 15 117 11 516 61 625 79 607 102 1095 222 1645 406 930 310
1717 700 2550 1263 1485 1003 2700 2403 3486 4017 534 1097 867 2278 980 3470
42 448 53 1209 24 1635 -63 916 -229 1743 -526 2615 -83 245 -265 708 -359
915 -576 1268 -1465 2477 -2500 3401 -1065 949 -2255 1650 -3570 2101 -917
315 -1822 490 -2825 548 -194 11 -925 11 -1120 -1z m-1391 -4084 c273 -29 454
-78 661 -180 425 -209 699 -602 754 -1080 30 -260 35 -503 35 -1660 0 -1197
-5 -1428 -39 -1704 -57 -457 -325 -841 -731 -1045 -276 -139 -550 -198 -924
-198 -361 0 -623 53 -897 182 -337 159 -588 444 -708 803 -34 102 -55 220 -76
437 -17 164 -25 2562 -9 2845 13 256 34 444 60 545 101 393 375 718 752 894
307 144 724 203 1122 161z m-4330 -122 c3 -10 25 -126 50 -258 155 -830 241
-1358 292 -1805 l8 -65 8 55 c5 30 25 154 44 275 70 442 198 1117 314 1655 10
47 21 102 24 123 l7 37 679 0 c374 0 680 -3 680 -6 0 -3 -11 -43 -25 -88 -13
-44 -49 -165 -80 -268 -58 -197 -120 -407 -236 -798 -39 -129 -88 -293 -109
-365 -21 -71 -70 -236 -109 -365 -112 -376 -177 -597 -236 -797 -31 -104 -74
-249 -96 -323 -23 -74 -51 -171 -64 -215 -13 -44 -43 -141 -67 -215 l-43 -135
-5 -1035 -5 -1035 -680 0 -680 0 -5 1045 -5 1045 -57 190 c-31 105 -180 622
-331 1150 -474 1652 -588 2048 -608 2114 -34 114 -116 101 655 101 634 0 675
-1 680 -17z m7849 -2270 c4 -2408 2 -2345 47 -2433 30 -58 63 -75 150 -75 117
0 160 40 188 174 14 68 16 324 19 2349 l4 2272 737 -2 737 -3 0 -1955 c0
-2297 -2 -2421 -35 -2679 -48 -368 -343 -763 -705 -943 -278 -139 -652 -202
-1049 -178 -760 48 -1302 390 -1486 938 -38 114 -57 235 -71 457 -12 186 -26
4322 -15 4351 5 12 110 14 740 14 l736 0 3 -2287z m4227 2277 c267 -12 521
-33 660 -57 275 -46 487 -177 654 -403 181 -246 254 -596 243 -1167 -12 -657
-116 -879 -467 -1001 -47 -16 -131 -38 -187 -47 l-102 -18 122 -42 c221 -74
342 -149 439 -270 65 -80 122 -178 146 -251 45 -133 47 -178 47 -1309 l0
-1070 -680 0 -680 0 -5 1100 c-5 994 -7 1109 -23 1190 -24 122 -48 162 -117
197 -64 33 -137 48 -226 48 l-64 0 -2 -1267 -3 -1268 -735 0 -735 0 -3 2823
-2 2822 742 0 c409 0 849 -5 978 -10z m-7429 -6315 c568 -74 986 -352 1205
-800 91 -187 124 -336 146 -660 18 -269 19 -2653 0 -2910 -23 -317 -48 -445
-121 -616 -177 -411 -516 -688 -990 -809 -181 -46 -326 -63 -551 -64 -282 -1
-488 28 -709 101 -230 75 -405 178 -562 330 -203 197 -345 458 -393 725 -42
228 -56 683 -56 1783 0 1100 15 1570 55 1784 83 433 359 788 758 976 221 104
434 155 742 179 87 7 366 -4 476 -19z m3784 15 c405 -29 704 -128 978 -324
187 -133 315 -273 399 -433 59 -114 91 -209 122 -366 47 -235 57 -353 63 -724
l6 -353 -735 0 -735 0 -6 438 c-4 240 -11 484 -17 542 -19 190 -77 260 -215
260 -133 0 -193 -68 -217 -250 -19 -142 -19 -3318 0 -3439 16 -102 44 -180 75
-209 77 -72 231 -69 310 6 41 39 57 73 80 176 18 83 20 135 24 589 l5 497
-146 0 -146 0 0 435 0 435 860 0 860 0 -2 -1517 -3 -1518 -459 -3 c-361 -2
-461 0 -468 10 -4 7 -33 90 -64 183 -31 94 -59 176 -63 182 -4 8 -23 -12 -51
-55 -61 -92 -199 -228 -293 -286 -460 -285 -1162 -163 -1603 279 -162 163
-295 414 -348 655 -47 217 -49 258 -53 1650 -5 1523 2 1753 62 2081 45 243
149 427 349 616 298 282 623 413 1106 446 101 7 192 6 325 -3z m4035 0 c476
-36 860 -198 1116 -474 185 -198 317 -469 353 -721 38 -279 55 -1002 48 -2050
-8 -1081 -21 -1340 -77 -1561 -132 -526 -563 -912 -1140 -1023 -202 -39 -267
-45 -475 -45 -354 0 -627 53 -895 176 -337 155 -624 485 -725 834 -73 251 -77
347 -82 1789 -6 1489 2 1740 63 1994 92 390 368 729 738 906 299 143 678 205
1076 175z m-11010 -2365 l0 -2255 444 0 c396 0 445 -2 450 -16 3 -9 6 -258 6
-554 0 -296 -3 -545 -6 -554 -6 -14 -119 -16 -1185 -16 l-1179 0 0 2825 0
2825 735 0 735 0 0 -2255z"/>
<path d="M34795 18067 c-67 -31 -99 -87 -127 -221 -15 -72 -23 -3055 -9 -3316
15 -267 32 -330 100 -372 29 -19 50 -23 111 -23 165 1 202 65 221 385 15 254
7 3307 -9 3375 -17 69 -52 135 -85 159 -35 26 -156 33 -202 13z"/>
<path d="M42630 17333 l0 -625 87 7 c48 4 112 14 142 22 175 45 201 127 201
623 -1 272 -12 385 -43 446 -40 78 -136 129 -262 140 -33 3 -75 7 -92 9 l-33
4 0 -626z"/>
<path d="M35022 11639 c-77 -39 -103 -95 -122 -264 -13 -122 -13 -3218 0
-3375 17 -191 48 -256 131 -280 45 -13 121 -13 156 1 47 17 93 70 108 124 35
121 37 228 42 1710 6 1944 4 1994 -110 2079 -42 31 -149 34 -205 5z"/>
<path d="M42995 11641 c-78 -36 -106 -87 -127 -227 -19 -130 -19 -3310 0
-3464 17 -135 41 -187 102 -217 86 -44 211 -22 259 46 31 43 48 139 61 340 16
255 9 3227 -9 3331 -17 106 -46 160 -101 188 -55 27 -129 29 -185 3z"/>
<path d="M20496 16881 c-3 -5 -28 -11 -55 -14 -71 -8 -236 -108 -345 -208 -17
-15 -52 -45 -78 -66 -26 -21 -82 -66 -125 -101 -43 -35 -104 -84 -136 -110
-32 -26 -79 -65 -105 -88 -26 -22 -62 -51 -80 -64 -19 -12 -71 -54 -115 -92
-100 -85 -93 -80 -247 -203 -69 -56 -205 -166 -303 -245 -98 -80 -193 -156
-210 -170 -18 -13 -61 -50 -97 -80 -36 -31 -96 -81 -135 -112 -38 -31 -108
-87 -155 -124 -47 -38 -103 -82 -124 -98 -22 -16 -61 -48 -86 -70 -26 -23 -82
-70 -124 -106 -152 -128 -230 -268 -240 -428 -2 -29 1 -55 5 -58 13 -8 11 -48
-3 -62 -9 -9 -9 -15 0 -24 7 -7 12 -21 12 -33 0 -12 7 -30 15 -41 8 -10 15
-29 15 -40 0 -34 118 -183 195 -247 39 -33 124 -102 190 -155 66 -53 141 -114
167 -137 25 -22 52 -45 60 -51 7 -5 42 -34 78 -63 36 -29 88 -71 115 -93 28
-22 70 -57 95 -78 25 -22 64 -54 87 -72 108 -84 175 -138 253 -203 47 -38 106
-86 130 -105 24 -19 62 -51 85 -70 23 -19 61 -51 85 -70 24 -19 60 -49 80 -65
19 -17 68 -57 109 -90 41 -33 86 -69 99 -80 14 -11 39 -35 57 -52 17 -18 36
-33 41 -33 5 0 40 -30 79 -65 38 -36 73 -65 77 -65 4 0 18 -10 32 -22 13 -13
46 -39 71 -58 26 -19 76 -61 111 -92 35 -32 67 -58 72 -58 5 0 22 -13 38 -30
16 -16 33 -30 37 -30 5 0 23 -11 40 -24 88 -65 198 -96 342 -96 86 0 197 28
249 63 21 15 45 27 53 27 7 0 42 28 77 63 59 58 133 178 159 257 4 14 7 339 7
722 -1 684 0 697 19 707 14 8 683 11 2184 11 l2165 0 7 555 c6 436 5 558 -5
570 -11 13 -267 15 -2175 15 -1823 0 -2164 2 -2174 14 -8 10 -11 200 -12 697
l0 684 -23 67 c-42 120 -103 202 -209 282 -48 37 -150 85 -207 98 -58 13 -218
19 -224 9z"/>
<path d="M49982 12350 c0 -344 4 -611 8 -595 4 17 8 284 8 595 0 311 -4 579
-8 595 -4 17 -8 -251 -8 -595z"/>
<path d="M23130 12805 c-128 -31 -193 -69 -289 -170 -74 -78 -107 -135 -138
-237 -14 -46 -17 -144 -22 -703 l-6 -650 -2169 -3 c-1583 -1 -2173 -5 -2183
-13 -11 -9 -13 -114 -13 -573 0 -336 4 -567 10 -576 8 -13 265 -16 2182 -20
l2173 -5 6 -650 c5 -565 8 -657 22 -705 49 -161 152 -279 321 -369 l59 -31
183 0 182 0 59 30 c32 16 96 59 143 95 47 36 118 91 159 122 82 63 324 255
357 283 12 9 58 46 104 81 45 35 121 94 168 132 48 37 111 86 140 108 29 22
74 59 101 82 27 23 76 62 110 87 33 25 60 48 60 53 1 4 7 7 15 7 7 0 20 7 27
16 8 9 50 44 94 77 44 34 82 63 85 66 3 4 39 33 80 66 41 32 95 75 118 95 24
19 57 45 73 56 16 12 50 38 75 59 25 21 78 63 119 94 203 155 376 295 426 348
65 67 73 81 130 223 10 24 14 78 14 170 0 125 -2 141 -29 210 -16 41 -35 82
-42 91 -8 8 -14 20 -14 26 0 17 -149 153 -289 263 -74 58 -161 128 -195 155
-33 28 -73 60 -87 70 -56 42 -218 168 -309 240 -52 41 -120 94 -150 118 -30
23 -66 53 -80 65 -14 13 -68 56 -120 95 -52 39 -134 103 -181 142 -47 38 -124
99 -169 135 -46 36 -118 92 -160 125 -42 33 -114 89 -160 125 -177 138 -297
233 -344 273 -27 23 -59 49 -71 57 -13 8 -47 33 -76 56 -78 60 -141 89 -242
113 -62 14 -187 12 -257 -4z"/>
</g>
</svg>
